G04 #@! TF.GenerationSoftware,KiCad,Pcbnew,no-vcs-found-0e6723b~58~ubuntu16.10.1*
G04 #@! TF.CreationDate,2017-07-28T21:57:49+01:00*
G04 #@! TF.ProjectId,Discovery SLS controller,446973636F7665727920534C5320636F,rev?*
G04 #@! TF.FileFunction,Legend,Bot*
G04 #@! TF.FilePolarity,Positive*
%FSLAX46Y46*%
G04 Gerber Fmt 4.6, Leading zero omitted, Abs format (unit mm)*
G04 Created by KiCad (PCBNEW no-vcs-found-0e6723b~58~ubuntu16.10.1) date Fri Jul 28 21:57:49 2017*
%MOMM*%
%LPD*%
G01*
G04 APERTURE LIST*
%ADD10C,0.100000*%
%ADD11C,0.150000*%
G04 APERTURE END LIST*
D10*
D11*
X157419040Y-106751120D02*
X162620960Y-106751120D01*
X162620960Y-109148880D02*
X157419040Y-109148880D01*
X155420060Y-110248700D02*
X155420060Y-109148880D01*
X154820620Y-109748320D02*
X156019500Y-109748320D01*
X156024580Y-109148880D02*
X156024580Y-106751120D01*
X158099760Y-123219160D02*
X158099760Y-123170900D01*
X158800800Y-120420180D02*
X158099760Y-120420180D01*
X158099760Y-120420180D02*
X158099760Y-120669100D01*
X158099760Y-123219160D02*
X158099760Y-123419820D01*
X158099760Y-123419820D02*
X158800800Y-123419820D01*
X160415000Y-116240000D02*
X160415000Y-117440000D01*
X162165000Y-117440000D02*
X162165000Y-116240000D01*
X153070000Y-108825000D02*
X154270000Y-108825000D01*
X154270000Y-107075000D02*
X153070000Y-107075000D01*
X159986006Y-111405942D02*
X160033625Y-111453561D01*
X160176482Y-111501180D01*
X160271720Y-111501180D01*
X160414578Y-111453561D01*
X160509816Y-111358323D01*
X160557435Y-111263085D01*
X160605054Y-111072609D01*
X160605054Y-110929752D01*
X160557435Y-110739276D01*
X160509816Y-110644038D01*
X160414578Y-110548800D01*
X160271720Y-110501180D01*
X160176482Y-110501180D01*
X160033625Y-110548800D01*
X159986006Y-110596419D01*
X159033625Y-111501180D02*
X159605054Y-111501180D01*
X159319340Y-111501180D02*
X159319340Y-110501180D01*
X159414578Y-110644038D01*
X159509816Y-110739276D01*
X159605054Y-110786895D01*
X155801012Y-109822288D02*
X155039107Y-109822288D01*
X155420060Y-110203240D02*
X155420060Y-109441336D01*
X157047619Y-121824761D02*
X157000000Y-121729523D01*
X156904761Y-121634285D01*
X156761904Y-121491428D01*
X156714285Y-121396190D01*
X156714285Y-121300952D01*
X156952380Y-121348571D02*
X156904761Y-121253333D01*
X156809523Y-121158095D01*
X156619047Y-121110476D01*
X156285714Y-121110476D01*
X156095238Y-121158095D01*
X156000000Y-121253333D01*
X155952380Y-121348571D01*
X155952380Y-121539047D01*
X156000000Y-121634285D01*
X156095238Y-121729523D01*
X156285714Y-121777142D01*
X156619047Y-121777142D01*
X156809523Y-121729523D01*
X156904761Y-121634285D01*
X156952380Y-121539047D01*
X156952380Y-121348571D01*
X156952380Y-122729523D02*
X156952380Y-122158095D01*
X156952380Y-122443809D02*
X155952380Y-122443809D01*
X156095238Y-122348571D01*
X156190476Y-122253333D01*
X156238095Y-122158095D01*
X163842380Y-116673333D02*
X163366190Y-116340000D01*
X163842380Y-116101904D02*
X162842380Y-116101904D01*
X162842380Y-116482857D01*
X162890000Y-116578095D01*
X162937619Y-116625714D01*
X163032857Y-116673333D01*
X163175714Y-116673333D01*
X163270952Y-116625714D01*
X163318571Y-116578095D01*
X163366190Y-116482857D01*
X163366190Y-116101904D01*
X163842380Y-117625714D02*
X163842380Y-117054285D01*
X163842380Y-117340000D02*
X162842380Y-117340000D01*
X162985238Y-117244761D01*
X163080476Y-117149523D01*
X163128095Y-117054285D01*
X153836666Y-106302380D02*
X154170000Y-105826190D01*
X154408095Y-106302380D02*
X154408095Y-105302380D01*
X154027142Y-105302380D01*
X153931904Y-105350000D01*
X153884285Y-105397619D01*
X153836666Y-105492857D01*
X153836666Y-105635714D01*
X153884285Y-105730952D01*
X153931904Y-105778571D01*
X154027142Y-105826190D01*
X154408095Y-105826190D01*
X153455714Y-105397619D02*
X153408095Y-105350000D01*
X153312857Y-105302380D01*
X153074761Y-105302380D01*
X152979523Y-105350000D01*
X152931904Y-105397619D01*
X152884285Y-105492857D01*
X152884285Y-105588095D01*
X152931904Y-105730952D01*
X153503333Y-106302380D01*
X152884285Y-106302380D01*
M02*
