G04 #@! TF.GenerationSoftware,KiCad,Pcbnew,no-vcs-found-0e6723b~58~ubuntu16.10.1*
G04 #@! TF.CreationDate,2017-07-28T21:57:49+01:00*
G04 #@! TF.ProjectId,Discovery SLS controller,446973636F7665727920534C5320636F,rev?*
G04 #@! TF.FileFunction,Copper,L1,Top,Signal*
G04 #@! TF.FilePolarity,Positive*
%FSLAX46Y46*%
G04 Gerber Fmt 4.6, Leading zero omitted, Abs format (unit mm)*
G04 Created by KiCad (PCBNEW no-vcs-found-0e6723b~58~ubuntu16.10.1) date Fri Jul 28 21:57:49 2017*
%MOMM*%
%LPD*%
G01*
G04 APERTURE LIST*
%ADD10C,0.100000*%
%ADD11R,1.000000X1.000000*%
%ADD12C,1.000000*%
%ADD13O,1.600000X1.600000*%
%ADD14R,2.032000X1.727200*%
%ADD15O,2.032000X1.727200*%
%ADD16C,0.500000*%
%ADD17C,0.254000*%
G04 APERTURE END LIST*
D10*
D11*
X167640000Y-105410000D03*
D12*
X165100000Y-105410000D03*
X166370000Y-106680000D03*
D13*
X157391100Y-111353600D03*
X157391100Y-113893600D03*
X157391100Y-116433600D03*
X157391100Y-118973600D03*
X165011100Y-118973600D03*
X165011100Y-116433600D03*
X165011100Y-113893600D03*
X165011100Y-111353600D03*
D14*
X152400000Y-113030000D03*
D15*
X152400000Y-115570000D03*
X152400000Y-118110000D03*
D14*
X170180000Y-118110000D03*
D15*
X170180000Y-115570000D03*
X170180000Y-113030000D03*
D16*
X170180000Y-118110000D02*
X168275000Y-118110000D01*
X166598600Y-116433600D02*
X165011100Y-116433600D01*
X168275000Y-118110000D02*
X166598600Y-116433600D01*
X165011100Y-113893600D02*
X166776400Y-113893600D01*
X167640000Y-113030000D02*
X170180000Y-113030000D01*
X166776400Y-113893600D02*
X167640000Y-113030000D01*
D17*
G36*
X173280000Y-124385000D02*
X149300000Y-124385000D01*
X149300000Y-118469026D01*
X150792642Y-118469026D01*
X150795291Y-118484791D01*
X151049268Y-119012036D01*
X151485680Y-119401954D01*
X152038087Y-119595184D01*
X152273000Y-119450924D01*
X152273000Y-118237000D01*
X152527000Y-118237000D01*
X152527000Y-119450924D01*
X152761913Y-119595184D01*
X153314320Y-119401954D01*
X153403092Y-119322639D01*
X155999196Y-119322639D01*
X156160059Y-119711023D01*
X156535966Y-120125989D01*
X157042059Y-120365514D01*
X157264100Y-120244229D01*
X157264100Y-119100600D01*
X157518100Y-119100600D01*
X157518100Y-120244229D01*
X157740141Y-120365514D01*
X158246234Y-120125989D01*
X158622141Y-119711023D01*
X158783004Y-119322639D01*
X158661015Y-119100600D01*
X157518100Y-119100600D01*
X157264100Y-119100600D01*
X156121185Y-119100600D01*
X155999196Y-119322639D01*
X153403092Y-119322639D01*
X153750732Y-119012036D01*
X154004709Y-118484791D01*
X154007358Y-118469026D01*
X153886217Y-118237000D01*
X152527000Y-118237000D01*
X152273000Y-118237000D01*
X150913783Y-118237000D01*
X150792642Y-118469026D01*
X149300000Y-118469026D01*
X149300000Y-115570000D01*
X150716655Y-115570000D01*
X150830729Y-116143489D01*
X151155585Y-116629670D01*
X151465069Y-116836461D01*
X151049268Y-117207964D01*
X150795291Y-117735209D01*
X150792642Y-117750974D01*
X150913783Y-117983000D01*
X152273000Y-117983000D01*
X152273000Y-117963000D01*
X152527000Y-117963000D01*
X152527000Y-117983000D01*
X153886217Y-117983000D01*
X154007358Y-117750974D01*
X154004709Y-117735209D01*
X153750732Y-117207964D01*
X153334931Y-116836461D01*
X153644415Y-116629670D01*
X153969271Y-116143489D01*
X154083345Y-115570000D01*
X153969271Y-114996511D01*
X153644415Y-114510330D01*
X153627434Y-114498984D01*
X153663765Y-114491757D01*
X153873809Y-114351409D01*
X154014157Y-114141365D01*
X154063440Y-113893600D01*
X154063440Y-112166400D01*
X154014157Y-111918635D01*
X153873809Y-111708591D01*
X153663765Y-111568243D01*
X153416000Y-111518960D01*
X151384000Y-111518960D01*
X151136235Y-111568243D01*
X150926191Y-111708591D01*
X150785843Y-111918635D01*
X150736560Y-112166400D01*
X150736560Y-113893600D01*
X150785843Y-114141365D01*
X150926191Y-114351409D01*
X151136235Y-114491757D01*
X151172566Y-114498984D01*
X151155585Y-114510330D01*
X150830729Y-114996511D01*
X150716655Y-115570000D01*
X149300000Y-115570000D01*
X149300000Y-111353600D01*
X155927987Y-111353600D01*
X156037220Y-111902751D01*
X156348289Y-112368298D01*
X156730375Y-112623600D01*
X156348289Y-112878902D01*
X156037220Y-113344449D01*
X155927987Y-113893600D01*
X156037220Y-114442751D01*
X156348289Y-114908298D01*
X156730375Y-115163600D01*
X156348289Y-115418902D01*
X156037220Y-115884449D01*
X155927987Y-116433600D01*
X156037220Y-116982751D01*
X156348289Y-117448298D01*
X156752803Y-117718586D01*
X156535966Y-117821211D01*
X156160059Y-118236177D01*
X155999196Y-118624561D01*
X156121185Y-118846600D01*
X157264100Y-118846600D01*
X157264100Y-118826600D01*
X157518100Y-118826600D01*
X157518100Y-118846600D01*
X158661015Y-118846600D01*
X158783004Y-118624561D01*
X158622141Y-118236177D01*
X158246234Y-117821211D01*
X158029397Y-117718586D01*
X158433911Y-117448298D01*
X158744980Y-116982751D01*
X158854213Y-116433600D01*
X158744980Y-115884449D01*
X158433911Y-115418902D01*
X158051825Y-115163600D01*
X158433911Y-114908298D01*
X158744980Y-114442751D01*
X158854213Y-113893600D01*
X158744980Y-113344449D01*
X158433911Y-112878902D01*
X158051825Y-112623600D01*
X158433911Y-112368298D01*
X158744980Y-111902751D01*
X158854213Y-111353600D01*
X163547987Y-111353600D01*
X163657220Y-111902751D01*
X163968289Y-112368298D01*
X164350375Y-112623600D01*
X163968289Y-112878902D01*
X163657220Y-113344449D01*
X163547987Y-113893600D01*
X163657220Y-114442751D01*
X163968289Y-114908298D01*
X164350375Y-115163600D01*
X163968289Y-115418902D01*
X163657220Y-115884449D01*
X163547987Y-116433600D01*
X163657220Y-116982751D01*
X163968289Y-117448298D01*
X164350375Y-117703600D01*
X163968289Y-117958902D01*
X163657220Y-118424449D01*
X163547987Y-118973600D01*
X163657220Y-119522751D01*
X163968289Y-119988298D01*
X164433836Y-120299367D01*
X164982987Y-120408600D01*
X165039213Y-120408600D01*
X165588364Y-120299367D01*
X166053911Y-119988298D01*
X166364980Y-119522751D01*
X166474213Y-118973600D01*
X166364980Y-118424449D01*
X166053911Y-117958902D01*
X165671825Y-117703600D01*
X166053911Y-117448298D01*
X166140573Y-117318600D01*
X166232020Y-117318600D01*
X167649208Y-118735787D01*
X167649210Y-118735790D01*
X167936325Y-118927633D01*
X167992516Y-118938810D01*
X168275000Y-118995001D01*
X168275005Y-118995000D01*
X168520817Y-118995000D01*
X168565843Y-119221365D01*
X168706191Y-119431409D01*
X168916235Y-119571757D01*
X169164000Y-119621040D01*
X171196000Y-119621040D01*
X171443765Y-119571757D01*
X171653809Y-119431409D01*
X171794157Y-119221365D01*
X171843440Y-118973600D01*
X171843440Y-117246400D01*
X171794157Y-116998635D01*
X171653809Y-116788591D01*
X171443765Y-116648243D01*
X171353590Y-116630306D01*
X171530732Y-116472036D01*
X171784709Y-115944791D01*
X171787358Y-115929026D01*
X171666217Y-115697000D01*
X170307000Y-115697000D01*
X170307000Y-115717000D01*
X170053000Y-115717000D01*
X170053000Y-115697000D01*
X168693783Y-115697000D01*
X168572642Y-115929026D01*
X168575291Y-115944791D01*
X168829268Y-116472036D01*
X169006410Y-116630306D01*
X168916235Y-116648243D01*
X168706191Y-116788591D01*
X168565843Y-116998635D01*
X168540852Y-117124273D01*
X167224390Y-115807810D01*
X167058550Y-115697000D01*
X166937275Y-115615967D01*
X166881084Y-115604790D01*
X166598600Y-115548599D01*
X166598595Y-115548600D01*
X166140573Y-115548600D01*
X166053911Y-115418902D01*
X165671825Y-115163600D01*
X166053911Y-114908298D01*
X166140573Y-114778600D01*
X166776395Y-114778600D01*
X166776400Y-114778601D01*
X167058884Y-114722410D01*
X167115075Y-114711233D01*
X167402190Y-114519390D01*
X168006579Y-113915000D01*
X168818874Y-113915000D01*
X168935585Y-114089670D01*
X169245069Y-114296461D01*
X168829268Y-114667964D01*
X168575291Y-115195209D01*
X168572642Y-115210974D01*
X168693783Y-115443000D01*
X170053000Y-115443000D01*
X170053000Y-115423000D01*
X170307000Y-115423000D01*
X170307000Y-115443000D01*
X171666217Y-115443000D01*
X171787358Y-115210974D01*
X171784709Y-115195209D01*
X171530732Y-114667964D01*
X171114931Y-114296461D01*
X171424415Y-114089670D01*
X171749271Y-113603489D01*
X171863345Y-113030000D01*
X171749271Y-112456511D01*
X171424415Y-111970330D01*
X170938234Y-111645474D01*
X170364745Y-111531400D01*
X169995255Y-111531400D01*
X169421766Y-111645474D01*
X168935585Y-111970330D01*
X168818874Y-112145000D01*
X167640005Y-112145000D01*
X167640000Y-112144999D01*
X167357516Y-112201190D01*
X167301325Y-112212367D01*
X167014210Y-112404210D01*
X167014208Y-112404213D01*
X166409820Y-113008600D01*
X166140573Y-113008600D01*
X166053911Y-112878902D01*
X165671825Y-112623600D01*
X166053911Y-112368298D01*
X166364980Y-111902751D01*
X166474213Y-111353600D01*
X166364980Y-110804449D01*
X166053911Y-110338902D01*
X165588364Y-110027833D01*
X165039213Y-109918600D01*
X164982987Y-109918600D01*
X164433836Y-110027833D01*
X163968289Y-110338902D01*
X163657220Y-110804449D01*
X163547987Y-111353600D01*
X158854213Y-111353600D01*
X158744980Y-110804449D01*
X158433911Y-110338902D01*
X157968364Y-110027833D01*
X157419213Y-109918600D01*
X157362987Y-109918600D01*
X156813836Y-110027833D01*
X156348289Y-110338902D01*
X156037220Y-110804449D01*
X155927987Y-111353600D01*
X149300000Y-111353600D01*
X149300000Y-107470104D01*
X165759501Y-107470104D01*
X165796648Y-107685217D01*
X166224972Y-107828112D01*
X166675375Y-107796217D01*
X166943352Y-107685217D01*
X166980499Y-107470104D01*
X166370000Y-106859605D01*
X165759501Y-107470104D01*
X149300000Y-107470104D01*
X149300000Y-105634775D01*
X163964803Y-105634775D01*
X164137233Y-106052086D01*
X164456235Y-106371645D01*
X164873244Y-106544803D01*
X165222606Y-106545108D01*
X165253783Y-106985375D01*
X165364783Y-107253352D01*
X165579896Y-107290499D01*
X166190395Y-106680000D01*
X166176253Y-106665858D01*
X166355858Y-106486253D01*
X166370000Y-106500395D01*
X166384143Y-106486253D01*
X166563748Y-106665858D01*
X166549605Y-106680000D01*
X167160104Y-107290499D01*
X167375217Y-107253352D01*
X167518112Y-106825028D01*
X167499163Y-106557440D01*
X168140000Y-106557440D01*
X168387765Y-106508157D01*
X168597809Y-106367809D01*
X168738157Y-106157765D01*
X168787440Y-105910000D01*
X168787440Y-104910000D01*
X168738157Y-104662235D01*
X168597809Y-104452191D01*
X168387765Y-104311843D01*
X168140000Y-104262560D01*
X167140000Y-104262560D01*
X166892235Y-104311843D01*
X166682191Y-104452191D01*
X166541843Y-104662235D01*
X166492560Y-104910000D01*
X166492560Y-105533479D01*
X166234877Y-105551727D01*
X166235197Y-105185225D01*
X166062767Y-104767914D01*
X165743765Y-104448355D01*
X165326756Y-104275197D01*
X164875225Y-104274803D01*
X164457914Y-104447233D01*
X164138355Y-104766235D01*
X163965197Y-105183244D01*
X163964803Y-105634775D01*
X149300000Y-105634775D01*
X149300000Y-102945000D01*
X173280000Y-102945000D01*
X173280000Y-124385000D01*
X173280000Y-124385000D01*
G37*
X173280000Y-124385000D02*
X149300000Y-124385000D01*
X149300000Y-118469026D01*
X150792642Y-118469026D01*
X150795291Y-118484791D01*
X151049268Y-119012036D01*
X151485680Y-119401954D01*
X152038087Y-119595184D01*
X152273000Y-119450924D01*
X152273000Y-118237000D01*
X152527000Y-118237000D01*
X152527000Y-119450924D01*
X152761913Y-119595184D01*
X153314320Y-119401954D01*
X153403092Y-119322639D01*
X155999196Y-119322639D01*
X156160059Y-119711023D01*
X156535966Y-120125989D01*
X157042059Y-120365514D01*
X157264100Y-120244229D01*
X157264100Y-119100600D01*
X157518100Y-119100600D01*
X157518100Y-120244229D01*
X157740141Y-120365514D01*
X158246234Y-120125989D01*
X158622141Y-119711023D01*
X158783004Y-119322639D01*
X158661015Y-119100600D01*
X157518100Y-119100600D01*
X157264100Y-119100600D01*
X156121185Y-119100600D01*
X155999196Y-119322639D01*
X153403092Y-119322639D01*
X153750732Y-119012036D01*
X154004709Y-118484791D01*
X154007358Y-118469026D01*
X153886217Y-118237000D01*
X152527000Y-118237000D01*
X152273000Y-118237000D01*
X150913783Y-118237000D01*
X150792642Y-118469026D01*
X149300000Y-118469026D01*
X149300000Y-115570000D01*
X150716655Y-115570000D01*
X150830729Y-116143489D01*
X151155585Y-116629670D01*
X151465069Y-116836461D01*
X151049268Y-117207964D01*
X150795291Y-117735209D01*
X150792642Y-117750974D01*
X150913783Y-117983000D01*
X152273000Y-117983000D01*
X152273000Y-117963000D01*
X152527000Y-117963000D01*
X152527000Y-117983000D01*
X153886217Y-117983000D01*
X154007358Y-117750974D01*
X154004709Y-117735209D01*
X153750732Y-117207964D01*
X153334931Y-116836461D01*
X153644415Y-116629670D01*
X153969271Y-116143489D01*
X154083345Y-115570000D01*
X153969271Y-114996511D01*
X153644415Y-114510330D01*
X153627434Y-114498984D01*
X153663765Y-114491757D01*
X153873809Y-114351409D01*
X154014157Y-114141365D01*
X154063440Y-113893600D01*
X154063440Y-112166400D01*
X154014157Y-111918635D01*
X153873809Y-111708591D01*
X153663765Y-111568243D01*
X153416000Y-111518960D01*
X151384000Y-111518960D01*
X151136235Y-111568243D01*
X150926191Y-111708591D01*
X150785843Y-111918635D01*
X150736560Y-112166400D01*
X150736560Y-113893600D01*
X150785843Y-114141365D01*
X150926191Y-114351409D01*
X151136235Y-114491757D01*
X151172566Y-114498984D01*
X151155585Y-114510330D01*
X150830729Y-114996511D01*
X150716655Y-115570000D01*
X149300000Y-115570000D01*
X149300000Y-111353600D01*
X155927987Y-111353600D01*
X156037220Y-111902751D01*
X156348289Y-112368298D01*
X156730375Y-112623600D01*
X156348289Y-112878902D01*
X156037220Y-113344449D01*
X155927987Y-113893600D01*
X156037220Y-114442751D01*
X156348289Y-114908298D01*
X156730375Y-115163600D01*
X156348289Y-115418902D01*
X156037220Y-115884449D01*
X155927987Y-116433600D01*
X156037220Y-116982751D01*
X156348289Y-117448298D01*
X156752803Y-117718586D01*
X156535966Y-117821211D01*
X156160059Y-118236177D01*
X155999196Y-118624561D01*
X156121185Y-118846600D01*
X157264100Y-118846600D01*
X157264100Y-118826600D01*
X157518100Y-118826600D01*
X157518100Y-118846600D01*
X158661015Y-118846600D01*
X158783004Y-118624561D01*
X158622141Y-118236177D01*
X158246234Y-117821211D01*
X158029397Y-117718586D01*
X158433911Y-117448298D01*
X158744980Y-116982751D01*
X158854213Y-116433600D01*
X158744980Y-115884449D01*
X158433911Y-115418902D01*
X158051825Y-115163600D01*
X158433911Y-114908298D01*
X158744980Y-114442751D01*
X158854213Y-113893600D01*
X158744980Y-113344449D01*
X158433911Y-112878902D01*
X158051825Y-112623600D01*
X158433911Y-112368298D01*
X158744980Y-111902751D01*
X158854213Y-111353600D01*
X163547987Y-111353600D01*
X163657220Y-111902751D01*
X163968289Y-112368298D01*
X164350375Y-112623600D01*
X163968289Y-112878902D01*
X163657220Y-113344449D01*
X163547987Y-113893600D01*
X163657220Y-114442751D01*
X163968289Y-114908298D01*
X164350375Y-115163600D01*
X163968289Y-115418902D01*
X163657220Y-115884449D01*
X163547987Y-116433600D01*
X163657220Y-116982751D01*
X163968289Y-117448298D01*
X164350375Y-117703600D01*
X163968289Y-117958902D01*
X163657220Y-118424449D01*
X163547987Y-118973600D01*
X163657220Y-119522751D01*
X163968289Y-119988298D01*
X164433836Y-120299367D01*
X164982987Y-120408600D01*
X165039213Y-120408600D01*
X165588364Y-120299367D01*
X166053911Y-119988298D01*
X166364980Y-119522751D01*
X166474213Y-118973600D01*
X166364980Y-118424449D01*
X166053911Y-117958902D01*
X165671825Y-117703600D01*
X166053911Y-117448298D01*
X166140573Y-117318600D01*
X166232020Y-117318600D01*
X167649208Y-118735787D01*
X167649210Y-118735790D01*
X167936325Y-118927633D01*
X167992516Y-118938810D01*
X168275000Y-118995001D01*
X168275005Y-118995000D01*
X168520817Y-118995000D01*
X168565843Y-119221365D01*
X168706191Y-119431409D01*
X168916235Y-119571757D01*
X169164000Y-119621040D01*
X171196000Y-119621040D01*
X171443765Y-119571757D01*
X171653809Y-119431409D01*
X171794157Y-119221365D01*
X171843440Y-118973600D01*
X171843440Y-117246400D01*
X171794157Y-116998635D01*
X171653809Y-116788591D01*
X171443765Y-116648243D01*
X171353590Y-116630306D01*
X171530732Y-116472036D01*
X171784709Y-115944791D01*
X171787358Y-115929026D01*
X171666217Y-115697000D01*
X170307000Y-115697000D01*
X170307000Y-115717000D01*
X170053000Y-115717000D01*
X170053000Y-115697000D01*
X168693783Y-115697000D01*
X168572642Y-115929026D01*
X168575291Y-115944791D01*
X168829268Y-116472036D01*
X169006410Y-116630306D01*
X168916235Y-116648243D01*
X168706191Y-116788591D01*
X168565843Y-116998635D01*
X168540852Y-117124273D01*
X167224390Y-115807810D01*
X167058550Y-115697000D01*
X166937275Y-115615967D01*
X166881084Y-115604790D01*
X166598600Y-115548599D01*
X166598595Y-115548600D01*
X166140573Y-115548600D01*
X166053911Y-115418902D01*
X165671825Y-115163600D01*
X166053911Y-114908298D01*
X166140573Y-114778600D01*
X166776395Y-114778600D01*
X166776400Y-114778601D01*
X167058884Y-114722410D01*
X167115075Y-114711233D01*
X167402190Y-114519390D01*
X168006579Y-113915000D01*
X168818874Y-113915000D01*
X168935585Y-114089670D01*
X169245069Y-114296461D01*
X168829268Y-114667964D01*
X168575291Y-115195209D01*
X168572642Y-115210974D01*
X168693783Y-115443000D01*
X170053000Y-115443000D01*
X170053000Y-115423000D01*
X170307000Y-115423000D01*
X170307000Y-115443000D01*
X171666217Y-115443000D01*
X171787358Y-115210974D01*
X171784709Y-115195209D01*
X171530732Y-114667964D01*
X171114931Y-114296461D01*
X171424415Y-114089670D01*
X171749271Y-113603489D01*
X171863345Y-113030000D01*
X171749271Y-112456511D01*
X171424415Y-111970330D01*
X170938234Y-111645474D01*
X170364745Y-111531400D01*
X169995255Y-111531400D01*
X169421766Y-111645474D01*
X168935585Y-111970330D01*
X168818874Y-112145000D01*
X167640005Y-112145000D01*
X167640000Y-112144999D01*
X167357516Y-112201190D01*
X167301325Y-112212367D01*
X167014210Y-112404210D01*
X167014208Y-112404213D01*
X166409820Y-113008600D01*
X166140573Y-113008600D01*
X166053911Y-112878902D01*
X165671825Y-112623600D01*
X166053911Y-112368298D01*
X166364980Y-111902751D01*
X166474213Y-111353600D01*
X166364980Y-110804449D01*
X166053911Y-110338902D01*
X165588364Y-110027833D01*
X165039213Y-109918600D01*
X164982987Y-109918600D01*
X164433836Y-110027833D01*
X163968289Y-110338902D01*
X163657220Y-110804449D01*
X163547987Y-111353600D01*
X158854213Y-111353600D01*
X158744980Y-110804449D01*
X158433911Y-110338902D01*
X157968364Y-110027833D01*
X157419213Y-109918600D01*
X157362987Y-109918600D01*
X156813836Y-110027833D01*
X156348289Y-110338902D01*
X156037220Y-110804449D01*
X155927987Y-111353600D01*
X149300000Y-111353600D01*
X149300000Y-107470104D01*
X165759501Y-107470104D01*
X165796648Y-107685217D01*
X166224972Y-107828112D01*
X166675375Y-107796217D01*
X166943352Y-107685217D01*
X166980499Y-107470104D01*
X166370000Y-106859605D01*
X165759501Y-107470104D01*
X149300000Y-107470104D01*
X149300000Y-105634775D01*
X163964803Y-105634775D01*
X164137233Y-106052086D01*
X164456235Y-106371645D01*
X164873244Y-106544803D01*
X165222606Y-106545108D01*
X165253783Y-106985375D01*
X165364783Y-107253352D01*
X165579896Y-107290499D01*
X166190395Y-106680000D01*
X166176253Y-106665858D01*
X166355858Y-106486253D01*
X166370000Y-106500395D01*
X166384143Y-106486253D01*
X166563748Y-106665858D01*
X166549605Y-106680000D01*
X167160104Y-107290499D01*
X167375217Y-107253352D01*
X167518112Y-106825028D01*
X167499163Y-106557440D01*
X168140000Y-106557440D01*
X168387765Y-106508157D01*
X168597809Y-106367809D01*
X168738157Y-106157765D01*
X168787440Y-105910000D01*
X168787440Y-104910000D01*
X168738157Y-104662235D01*
X168597809Y-104452191D01*
X168387765Y-104311843D01*
X168140000Y-104262560D01*
X167140000Y-104262560D01*
X166892235Y-104311843D01*
X166682191Y-104452191D01*
X166541843Y-104662235D01*
X166492560Y-104910000D01*
X166492560Y-105533479D01*
X166234877Y-105551727D01*
X166235197Y-105185225D01*
X166062767Y-104767914D01*
X165743765Y-104448355D01*
X165326756Y-104275197D01*
X164875225Y-104274803D01*
X164457914Y-104447233D01*
X164138355Y-104766235D01*
X163965197Y-105183244D01*
X163964803Y-105634775D01*
X149300000Y-105634775D01*
X149300000Y-102945000D01*
X173280000Y-102945000D01*
X173280000Y-124385000D01*
M02*
