G04 #@! TF.GenerationSoftware,KiCad,Pcbnew,no-vcs-found-0e6723b~58~ubuntu16.10.1*
G04 #@! TF.CreationDate,2017-07-28T21:57:49+01:00*
G04 #@! TF.ProjectId,Discovery SLS controller,446973636F7665727920534C5320636F,rev?*
G04 #@! TF.FileFunction,Legend,Top*
G04 #@! TF.FilePolarity,Positive*
%FSLAX46Y46*%
G04 Gerber Fmt 4.6, Leading zero omitted, Abs format (unit mm)*
G04 Created by KiCad (PCBNEW no-vcs-found-0e6723b~58~ubuntu16.10.1) date Fri Jul 28 21:57:49 2017*
%MOMM*%
%LPD*%
G01*
G04 APERTURE LIST*
%ADD10C,0.100000*%
%ADD11C,0.120000*%
%ADD12C,0.150000*%
G04 APERTURE END LIST*
D10*
D11*
X164531522Y-103571522D02*
G75*
G03X166370000Y-108010000I1838478J-1838478D01*
G01*
X168208478Y-103571522D02*
G75*
G02X166370000Y-108010000I-1838478J-1838478D01*
G01*
X168170000Y-103560000D02*
X164570000Y-103560000D01*
D12*
X157526100Y-109058600D02*
X157526100Y-110328600D01*
X164876100Y-109058600D02*
X164876100Y-110328600D01*
X164876100Y-121268600D02*
X164876100Y-119998600D01*
X157526100Y-121268600D02*
X157526100Y-119998600D01*
X157526100Y-109058600D02*
X164876100Y-109058600D01*
X157526100Y-121268600D02*
X164876100Y-121268600D01*
X157526100Y-110328600D02*
X156591100Y-110328600D01*
X151130000Y-114300000D02*
X151130000Y-119380000D01*
X151130000Y-119380000D02*
X153670000Y-119380000D01*
X153670000Y-119380000D02*
X153670000Y-114300000D01*
X153950000Y-111480000D02*
X153950000Y-113030000D01*
X153670000Y-114300000D02*
X151130000Y-114300000D01*
X150850000Y-113030000D02*
X150850000Y-111480000D01*
X150850000Y-111480000D02*
X153950000Y-111480000D01*
X171450000Y-116840000D02*
X171450000Y-111760000D01*
X171450000Y-111760000D02*
X168910000Y-111760000D01*
X168910000Y-111760000D02*
X168910000Y-116840000D01*
X168630000Y-119660000D02*
X168630000Y-118110000D01*
X168910000Y-116840000D02*
X171450000Y-116840000D01*
X171730000Y-118110000D02*
X171730000Y-119660000D01*
X171730000Y-119660000D02*
X168630000Y-119660000D01*
X165608095Y-108418380D02*
X165608095Y-109227904D01*
X165655714Y-109323142D01*
X165703333Y-109370761D01*
X165798571Y-109418380D01*
X165989047Y-109418380D01*
X166084285Y-109370761D01*
X166131904Y-109323142D01*
X166179523Y-109227904D01*
X166179523Y-108418380D01*
X167179523Y-109418380D02*
X166608095Y-109418380D01*
X166893809Y-109418380D02*
X166893809Y-108418380D01*
X166798571Y-108561238D01*
X166703333Y-108656476D01*
X166608095Y-108704095D01*
X156414909Y-106585980D02*
X156414909Y-105585980D01*
X157462528Y-106490742D02*
X157414909Y-106538361D01*
X157272052Y-106585980D01*
X157176814Y-106585980D01*
X157033957Y-106538361D01*
X156938719Y-106443123D01*
X156891100Y-106347885D01*
X156843480Y-106157409D01*
X156843480Y-106014552D01*
X156891100Y-105824076D01*
X156938719Y-105728838D01*
X157033957Y-105633600D01*
X157176814Y-105585980D01*
X157272052Y-105585980D01*
X157414909Y-105633600D01*
X157462528Y-105681219D01*
X158414909Y-106585980D02*
X157843480Y-106585980D01*
X158129195Y-106585980D02*
X158129195Y-105585980D01*
X158033957Y-105728838D01*
X157938719Y-105824076D01*
X157843480Y-105871695D01*
X151661904Y-108382380D02*
X151661904Y-107382380D01*
X152042857Y-107382380D01*
X152138095Y-107430000D01*
X152185714Y-107477619D01*
X152233333Y-107572857D01*
X152233333Y-107715714D01*
X152185714Y-107810952D01*
X152138095Y-107858571D01*
X152042857Y-107906190D01*
X151661904Y-107906190D01*
X153185714Y-108382380D02*
X152614285Y-108382380D01*
X152900000Y-108382380D02*
X152900000Y-107382380D01*
X152804761Y-107525238D01*
X152709523Y-107620476D01*
X152614285Y-107668095D01*
X169441904Y-123662380D02*
X169441904Y-122662380D01*
X169822857Y-122662380D01*
X169918095Y-122710000D01*
X169965714Y-122757619D01*
X170013333Y-122852857D01*
X170013333Y-122995714D01*
X169965714Y-123090952D01*
X169918095Y-123138571D01*
X169822857Y-123186190D01*
X169441904Y-123186190D01*
X170394285Y-122757619D02*
X170441904Y-122710000D01*
X170537142Y-122662380D01*
X170775238Y-122662380D01*
X170870476Y-122710000D01*
X170918095Y-122757619D01*
X170965714Y-122852857D01*
X170965714Y-122948095D01*
X170918095Y-123090952D01*
X170346666Y-123662380D01*
X170965714Y-123662380D01*
M02*
