G04 #@! TF.GenerationSoftware,KiCad,Pcbnew,no-vcs-found-0e6723b~58~ubuntu16.10.1*
G04 #@! TF.CreationDate,2017-07-28T21:57:49+01:00*
G04 #@! TF.ProjectId,Discovery SLS controller,446973636F7665727920534C5320636F,rev?*
G04 #@! TF.FileFunction,Copper,L2,Bot,Signal*
G04 #@! TF.FilePolarity,Positive*
%FSLAX46Y46*%
G04 Gerber Fmt 4.6, Leading zero omitted, Abs format (unit mm)*
G04 Created by KiCad (PCBNEW no-vcs-found-0e6723b~58~ubuntu16.10.1) date Fri Jul 28 21:57:49 2017*
%MOMM*%
%LPD*%
G01*
G04 APERTURE LIST*
%ADD10C,0.100000*%
%ADD11R,1.000000X1.000000*%
%ADD12C,1.000000*%
%ADD13R,2.999740X1.501140*%
%ADD14O,1.600000X1.600000*%
%ADD15R,2.032000X1.727200*%
%ADD16O,2.032000X1.727200*%
%ADD17R,0.800100X0.800100*%
%ADD18R,1.300000X1.500000*%
%ADD19R,1.500000X1.300000*%
%ADD20C,0.500000*%
%ADD21C,0.254000*%
G04 APERTURE END LIST*
D10*
D11*
X167640000Y-105410000D03*
D12*
X165100000Y-105410000D03*
X166370000Y-106680000D03*
D13*
X162018980Y-107950000D03*
X158021020Y-107950000D03*
D14*
X157391100Y-111353600D03*
X157391100Y-113893600D03*
X157391100Y-116433600D03*
X157391100Y-118973600D03*
X165011100Y-118973600D03*
X165011100Y-116433600D03*
X165011100Y-113893600D03*
X165011100Y-111353600D03*
D15*
X152400000Y-113030000D03*
D16*
X152400000Y-115570000D03*
X152400000Y-118110000D03*
D15*
X170180000Y-118110000D03*
D16*
X170180000Y-115570000D03*
X170180000Y-113030000D03*
D17*
X159750760Y-120970000D03*
X159750760Y-122870000D03*
X157751780Y-121920000D03*
D18*
X161290000Y-118190000D03*
X161290000Y-115490000D03*
D19*
X155020000Y-107950000D03*
X152320000Y-107950000D03*
D20*
X165100000Y-105410000D02*
X160561020Y-105410000D01*
X160561020Y-105410000D02*
X158021020Y-107950000D01*
X152400000Y-115570000D02*
X153670000Y-115570000D01*
X155020000Y-114220000D02*
X155020000Y-107950000D01*
X153670000Y-115570000D02*
X155020000Y-114220000D01*
X155020000Y-107950000D02*
X158021020Y-107950000D01*
X167640000Y-105410000D02*
X167640000Y-108724700D01*
X167640000Y-108724700D02*
X165011100Y-111353600D01*
X157391100Y-111353600D02*
X165011100Y-111353600D01*
X162560000Y-116522500D02*
X162560000Y-115610000D01*
X162440000Y-115490000D02*
X161290000Y-115490000D01*
X162560000Y-115610000D02*
X162440000Y-115490000D01*
X165011100Y-118973600D02*
X162560000Y-116522500D01*
X157751780Y-121920000D02*
X151130000Y-121920000D01*
X150495000Y-113030000D02*
X152400000Y-113030000D01*
X149860000Y-113665000D02*
X150495000Y-113030000D01*
X149860000Y-120650000D02*
X149860000Y-113665000D01*
X151130000Y-121920000D02*
X149860000Y-120650000D01*
X152320000Y-107950000D02*
X152320000Y-112950000D01*
X152320000Y-112950000D02*
X152400000Y-113030000D01*
X161290000Y-119460000D02*
X161290000Y-118190000D01*
X159750760Y-120970000D02*
X159780000Y-120970000D01*
X159780000Y-120970000D02*
X161290000Y-119460000D01*
D21*
G36*
X173280000Y-124385000D02*
X149300000Y-124385000D01*
X149300000Y-123155750D01*
X158715710Y-123155750D01*
X158715710Y-123396359D01*
X158812383Y-123629748D01*
X158991011Y-123808377D01*
X159224400Y-123905050D01*
X159465010Y-123905050D01*
X159623760Y-123746300D01*
X159623760Y-122997000D01*
X159877760Y-122997000D01*
X159877760Y-123746300D01*
X160036510Y-123905050D01*
X160277120Y-123905050D01*
X160510509Y-123808377D01*
X160689137Y-123629748D01*
X160785810Y-123396359D01*
X160785810Y-123155750D01*
X160627060Y-122997000D01*
X159877760Y-122997000D01*
X159623760Y-122997000D01*
X158874460Y-122997000D01*
X158715710Y-123155750D01*
X149300000Y-123155750D01*
X149300000Y-121341580D01*
X150504208Y-122545787D01*
X150504210Y-122545790D01*
X150791325Y-122737633D01*
X151130000Y-122805001D01*
X151130005Y-122805000D01*
X156934540Y-122805000D01*
X157103965Y-122918207D01*
X157351730Y-122967490D01*
X158151830Y-122967490D01*
X158399595Y-122918207D01*
X158609639Y-122777859D01*
X158729675Y-122598215D01*
X158874460Y-122743000D01*
X159623760Y-122743000D01*
X159623760Y-122723000D01*
X159877760Y-122723000D01*
X159877760Y-122743000D01*
X160627060Y-122743000D01*
X160785810Y-122584250D01*
X160785810Y-122343641D01*
X160689137Y-122110252D01*
X160510509Y-121931623D01*
X160475209Y-121917001D01*
X160608619Y-121827859D01*
X160748967Y-121617815D01*
X160798250Y-121370050D01*
X160798250Y-121203330D01*
X161915787Y-120085792D01*
X161915790Y-120085790D01*
X162107633Y-119798675D01*
X162158287Y-119544020D01*
X162187765Y-119538157D01*
X162397809Y-119397809D01*
X162538157Y-119187765D01*
X162587440Y-118940000D01*
X162587440Y-117801520D01*
X163583083Y-118797162D01*
X163547987Y-118973600D01*
X163657220Y-119522751D01*
X163968289Y-119988298D01*
X164433836Y-120299367D01*
X164982987Y-120408600D01*
X165039213Y-120408600D01*
X165588364Y-120299367D01*
X166053911Y-119988298D01*
X166364980Y-119522751D01*
X166474213Y-118973600D01*
X166364980Y-118424449D01*
X166053911Y-117958902D01*
X165671825Y-117703600D01*
X166053911Y-117448298D01*
X166188815Y-117246400D01*
X168516560Y-117246400D01*
X168516560Y-118973600D01*
X168565843Y-119221365D01*
X168706191Y-119431409D01*
X168916235Y-119571757D01*
X169164000Y-119621040D01*
X171196000Y-119621040D01*
X171443765Y-119571757D01*
X171653809Y-119431409D01*
X171794157Y-119221365D01*
X171843440Y-118973600D01*
X171843440Y-117246400D01*
X171794157Y-116998635D01*
X171653809Y-116788591D01*
X171443765Y-116648243D01*
X171353590Y-116630306D01*
X171530732Y-116472036D01*
X171784709Y-115944791D01*
X171787358Y-115929026D01*
X171666217Y-115697000D01*
X170307000Y-115697000D01*
X170307000Y-115717000D01*
X170053000Y-115717000D01*
X170053000Y-115697000D01*
X168693783Y-115697000D01*
X168572642Y-115929026D01*
X168575291Y-115944791D01*
X168829268Y-116472036D01*
X169006410Y-116630306D01*
X168916235Y-116648243D01*
X168706191Y-116788591D01*
X168565843Y-116998635D01*
X168516560Y-117246400D01*
X166188815Y-117246400D01*
X166364980Y-116982751D01*
X166474213Y-116433600D01*
X166364980Y-115884449D01*
X166053911Y-115418902D01*
X165671825Y-115163600D01*
X166053911Y-114908298D01*
X166364980Y-114442751D01*
X166474213Y-113893600D01*
X166364980Y-113344449D01*
X166154872Y-113030000D01*
X168496655Y-113030000D01*
X168610729Y-113603489D01*
X168935585Y-114089670D01*
X169245069Y-114296461D01*
X168829268Y-114667964D01*
X168575291Y-115195209D01*
X168572642Y-115210974D01*
X168693783Y-115443000D01*
X170053000Y-115443000D01*
X170053000Y-115423000D01*
X170307000Y-115423000D01*
X170307000Y-115443000D01*
X171666217Y-115443000D01*
X171787358Y-115210974D01*
X171784709Y-115195209D01*
X171530732Y-114667964D01*
X171114931Y-114296461D01*
X171424415Y-114089670D01*
X171749271Y-113603489D01*
X171863345Y-113030000D01*
X171749271Y-112456511D01*
X171424415Y-111970330D01*
X170938234Y-111645474D01*
X170364745Y-111531400D01*
X169995255Y-111531400D01*
X169421766Y-111645474D01*
X168935585Y-111970330D01*
X168610729Y-112456511D01*
X168496655Y-113030000D01*
X166154872Y-113030000D01*
X166053911Y-112878902D01*
X165671825Y-112623600D01*
X166053911Y-112368298D01*
X166364980Y-111902751D01*
X166474213Y-111353600D01*
X166439117Y-111177162D01*
X168265787Y-109350492D01*
X168265790Y-109350490D01*
X168457633Y-109063375D01*
X168503060Y-108835000D01*
X168525001Y-108724700D01*
X168525000Y-108724695D01*
X168525000Y-106416459D01*
X168597809Y-106367809D01*
X168738157Y-106157765D01*
X168787440Y-105910000D01*
X168787440Y-104910000D01*
X168738157Y-104662235D01*
X168597809Y-104452191D01*
X168387765Y-104311843D01*
X168140000Y-104262560D01*
X167140000Y-104262560D01*
X166892235Y-104311843D01*
X166682191Y-104452191D01*
X166541843Y-104662235D01*
X166492560Y-104910000D01*
X166492560Y-105533479D01*
X166234877Y-105551727D01*
X166235197Y-105185225D01*
X166062767Y-104767914D01*
X165743765Y-104448355D01*
X165326756Y-104275197D01*
X164875225Y-104274803D01*
X164457914Y-104447233D01*
X164380011Y-104525000D01*
X160561020Y-104525000D01*
X160222345Y-104592367D01*
X159935230Y-104784210D01*
X159935228Y-104784213D01*
X158167450Y-106551990D01*
X156521150Y-106551990D01*
X156273385Y-106601273D01*
X156070319Y-106736959D01*
X156017765Y-106701843D01*
X155770000Y-106652560D01*
X154270000Y-106652560D01*
X154022235Y-106701843D01*
X153812191Y-106842191D01*
X153671843Y-107052235D01*
X153670000Y-107061500D01*
X153668157Y-107052235D01*
X153527809Y-106842191D01*
X153317765Y-106701843D01*
X153070000Y-106652560D01*
X151570000Y-106652560D01*
X151322235Y-106701843D01*
X151112191Y-106842191D01*
X150971843Y-107052235D01*
X150922560Y-107300000D01*
X150922560Y-108600000D01*
X150971843Y-108847765D01*
X151112191Y-109057809D01*
X151322235Y-109198157D01*
X151435000Y-109220587D01*
X151435000Y-111518960D01*
X151384000Y-111518960D01*
X151136235Y-111568243D01*
X150926191Y-111708591D01*
X150785843Y-111918635D01*
X150740817Y-112145000D01*
X150495005Y-112145000D01*
X150495000Y-112144999D01*
X150156326Y-112212366D01*
X150156324Y-112212367D01*
X150156325Y-112212367D01*
X149869210Y-112404210D01*
X149869208Y-112404213D01*
X149300000Y-112973420D01*
X149300000Y-102945000D01*
X173280000Y-102945000D01*
X173280000Y-124385000D01*
X173280000Y-124385000D01*
G37*
X173280000Y-124385000D02*
X149300000Y-124385000D01*
X149300000Y-123155750D01*
X158715710Y-123155750D01*
X158715710Y-123396359D01*
X158812383Y-123629748D01*
X158991011Y-123808377D01*
X159224400Y-123905050D01*
X159465010Y-123905050D01*
X159623760Y-123746300D01*
X159623760Y-122997000D01*
X159877760Y-122997000D01*
X159877760Y-123746300D01*
X160036510Y-123905050D01*
X160277120Y-123905050D01*
X160510509Y-123808377D01*
X160689137Y-123629748D01*
X160785810Y-123396359D01*
X160785810Y-123155750D01*
X160627060Y-122997000D01*
X159877760Y-122997000D01*
X159623760Y-122997000D01*
X158874460Y-122997000D01*
X158715710Y-123155750D01*
X149300000Y-123155750D01*
X149300000Y-121341580D01*
X150504208Y-122545787D01*
X150504210Y-122545790D01*
X150791325Y-122737633D01*
X151130000Y-122805001D01*
X151130005Y-122805000D01*
X156934540Y-122805000D01*
X157103965Y-122918207D01*
X157351730Y-122967490D01*
X158151830Y-122967490D01*
X158399595Y-122918207D01*
X158609639Y-122777859D01*
X158729675Y-122598215D01*
X158874460Y-122743000D01*
X159623760Y-122743000D01*
X159623760Y-122723000D01*
X159877760Y-122723000D01*
X159877760Y-122743000D01*
X160627060Y-122743000D01*
X160785810Y-122584250D01*
X160785810Y-122343641D01*
X160689137Y-122110252D01*
X160510509Y-121931623D01*
X160475209Y-121917001D01*
X160608619Y-121827859D01*
X160748967Y-121617815D01*
X160798250Y-121370050D01*
X160798250Y-121203330D01*
X161915787Y-120085792D01*
X161915790Y-120085790D01*
X162107633Y-119798675D01*
X162158287Y-119544020D01*
X162187765Y-119538157D01*
X162397809Y-119397809D01*
X162538157Y-119187765D01*
X162587440Y-118940000D01*
X162587440Y-117801520D01*
X163583083Y-118797162D01*
X163547987Y-118973600D01*
X163657220Y-119522751D01*
X163968289Y-119988298D01*
X164433836Y-120299367D01*
X164982987Y-120408600D01*
X165039213Y-120408600D01*
X165588364Y-120299367D01*
X166053911Y-119988298D01*
X166364980Y-119522751D01*
X166474213Y-118973600D01*
X166364980Y-118424449D01*
X166053911Y-117958902D01*
X165671825Y-117703600D01*
X166053911Y-117448298D01*
X166188815Y-117246400D01*
X168516560Y-117246400D01*
X168516560Y-118973600D01*
X168565843Y-119221365D01*
X168706191Y-119431409D01*
X168916235Y-119571757D01*
X169164000Y-119621040D01*
X171196000Y-119621040D01*
X171443765Y-119571757D01*
X171653809Y-119431409D01*
X171794157Y-119221365D01*
X171843440Y-118973600D01*
X171843440Y-117246400D01*
X171794157Y-116998635D01*
X171653809Y-116788591D01*
X171443765Y-116648243D01*
X171353590Y-116630306D01*
X171530732Y-116472036D01*
X171784709Y-115944791D01*
X171787358Y-115929026D01*
X171666217Y-115697000D01*
X170307000Y-115697000D01*
X170307000Y-115717000D01*
X170053000Y-115717000D01*
X170053000Y-115697000D01*
X168693783Y-115697000D01*
X168572642Y-115929026D01*
X168575291Y-115944791D01*
X168829268Y-116472036D01*
X169006410Y-116630306D01*
X168916235Y-116648243D01*
X168706191Y-116788591D01*
X168565843Y-116998635D01*
X168516560Y-117246400D01*
X166188815Y-117246400D01*
X166364980Y-116982751D01*
X166474213Y-116433600D01*
X166364980Y-115884449D01*
X166053911Y-115418902D01*
X165671825Y-115163600D01*
X166053911Y-114908298D01*
X166364980Y-114442751D01*
X166474213Y-113893600D01*
X166364980Y-113344449D01*
X166154872Y-113030000D01*
X168496655Y-113030000D01*
X168610729Y-113603489D01*
X168935585Y-114089670D01*
X169245069Y-114296461D01*
X168829268Y-114667964D01*
X168575291Y-115195209D01*
X168572642Y-115210974D01*
X168693783Y-115443000D01*
X170053000Y-115443000D01*
X170053000Y-115423000D01*
X170307000Y-115423000D01*
X170307000Y-115443000D01*
X171666217Y-115443000D01*
X171787358Y-115210974D01*
X171784709Y-115195209D01*
X171530732Y-114667964D01*
X171114931Y-114296461D01*
X171424415Y-114089670D01*
X171749271Y-113603489D01*
X171863345Y-113030000D01*
X171749271Y-112456511D01*
X171424415Y-111970330D01*
X170938234Y-111645474D01*
X170364745Y-111531400D01*
X169995255Y-111531400D01*
X169421766Y-111645474D01*
X168935585Y-111970330D01*
X168610729Y-112456511D01*
X168496655Y-113030000D01*
X166154872Y-113030000D01*
X166053911Y-112878902D01*
X165671825Y-112623600D01*
X166053911Y-112368298D01*
X166364980Y-111902751D01*
X166474213Y-111353600D01*
X166439117Y-111177162D01*
X168265787Y-109350492D01*
X168265790Y-109350490D01*
X168457633Y-109063375D01*
X168503060Y-108835000D01*
X168525001Y-108724700D01*
X168525000Y-108724695D01*
X168525000Y-106416459D01*
X168597809Y-106367809D01*
X168738157Y-106157765D01*
X168787440Y-105910000D01*
X168787440Y-104910000D01*
X168738157Y-104662235D01*
X168597809Y-104452191D01*
X168387765Y-104311843D01*
X168140000Y-104262560D01*
X167140000Y-104262560D01*
X166892235Y-104311843D01*
X166682191Y-104452191D01*
X166541843Y-104662235D01*
X166492560Y-104910000D01*
X166492560Y-105533479D01*
X166234877Y-105551727D01*
X166235197Y-105185225D01*
X166062767Y-104767914D01*
X165743765Y-104448355D01*
X165326756Y-104275197D01*
X164875225Y-104274803D01*
X164457914Y-104447233D01*
X164380011Y-104525000D01*
X160561020Y-104525000D01*
X160222345Y-104592367D01*
X159935230Y-104784210D01*
X159935228Y-104784213D01*
X158167450Y-106551990D01*
X156521150Y-106551990D01*
X156273385Y-106601273D01*
X156070319Y-106736959D01*
X156017765Y-106701843D01*
X155770000Y-106652560D01*
X154270000Y-106652560D01*
X154022235Y-106701843D01*
X153812191Y-106842191D01*
X153671843Y-107052235D01*
X153670000Y-107061500D01*
X153668157Y-107052235D01*
X153527809Y-106842191D01*
X153317765Y-106701843D01*
X153070000Y-106652560D01*
X151570000Y-106652560D01*
X151322235Y-106701843D01*
X151112191Y-106842191D01*
X150971843Y-107052235D01*
X150922560Y-107300000D01*
X150922560Y-108600000D01*
X150971843Y-108847765D01*
X151112191Y-109057809D01*
X151322235Y-109198157D01*
X151435000Y-109220587D01*
X151435000Y-111518960D01*
X151384000Y-111518960D01*
X151136235Y-111568243D01*
X150926191Y-111708591D01*
X150785843Y-111918635D01*
X150740817Y-112145000D01*
X150495005Y-112145000D01*
X150495000Y-112144999D01*
X150156326Y-112212366D01*
X150156324Y-112212367D01*
X150156325Y-112212367D01*
X149869210Y-112404210D01*
X149869208Y-112404213D01*
X149300000Y-112973420D01*
X149300000Y-102945000D01*
X173280000Y-102945000D01*
X173280000Y-124385000D01*
G36*
X164456235Y-106371645D02*
X164873244Y-106544803D01*
X165222606Y-106545108D01*
X165253783Y-106985375D01*
X165364783Y-107253352D01*
X165579896Y-107290499D01*
X166190395Y-106680000D01*
X166176253Y-106665858D01*
X166355858Y-106486253D01*
X166370000Y-106500395D01*
X166384143Y-106486253D01*
X166563748Y-106665858D01*
X166549605Y-106680000D01*
X166563748Y-106694143D01*
X166384143Y-106873748D01*
X166370000Y-106859605D01*
X165759501Y-107470104D01*
X165796648Y-107685217D01*
X166224972Y-107828112D01*
X166675375Y-107796217D01*
X166755000Y-107763235D01*
X166755000Y-108358121D01*
X165168753Y-109944367D01*
X165039213Y-109918600D01*
X164982987Y-109918600D01*
X164433836Y-110027833D01*
X163968289Y-110338902D01*
X163881627Y-110468600D01*
X158520573Y-110468600D01*
X158433911Y-110338902D01*
X157968364Y-110027833D01*
X157419213Y-109918600D01*
X157362987Y-109918600D01*
X156813836Y-110027833D01*
X156348289Y-110338902D01*
X156037220Y-110804449D01*
X155927987Y-111353600D01*
X156037220Y-111902751D01*
X156348289Y-112368298D01*
X156730375Y-112623600D01*
X156348289Y-112878902D01*
X156037220Y-113344449D01*
X155927987Y-113893600D01*
X156037220Y-114442751D01*
X156348289Y-114908298D01*
X156730375Y-115163600D01*
X156348289Y-115418902D01*
X156037220Y-115884449D01*
X155927987Y-116433600D01*
X156037220Y-116982751D01*
X156348289Y-117448298D01*
X156752803Y-117718586D01*
X156535966Y-117821211D01*
X156160059Y-118236177D01*
X155999196Y-118624561D01*
X156121185Y-118846600D01*
X157264100Y-118846600D01*
X157264100Y-118826600D01*
X157518100Y-118826600D01*
X157518100Y-118846600D01*
X158661015Y-118846600D01*
X158783004Y-118624561D01*
X158622141Y-118236177D01*
X158246234Y-117821211D01*
X158029397Y-117718586D01*
X158433911Y-117448298D01*
X158744980Y-116982751D01*
X158854213Y-116433600D01*
X158744980Y-115884449D01*
X158433911Y-115418902D01*
X158051825Y-115163600D01*
X158433911Y-114908298D01*
X158744980Y-114442751D01*
X158854213Y-113893600D01*
X158744980Y-113344449D01*
X158433911Y-112878902D01*
X158051825Y-112623600D01*
X158433911Y-112368298D01*
X158520573Y-112238600D01*
X163881627Y-112238600D01*
X163968289Y-112368298D01*
X164350375Y-112623600D01*
X163968289Y-112878902D01*
X163657220Y-113344449D01*
X163547987Y-113893600D01*
X163657220Y-114442751D01*
X163968289Y-114908298D01*
X164350375Y-115163600D01*
X163968289Y-115418902D01*
X163657220Y-115884449D01*
X163576970Y-116287891D01*
X163445000Y-116155920D01*
X163445000Y-115610005D01*
X163445001Y-115610000D01*
X163377633Y-115271326D01*
X163377633Y-115271325D01*
X163185790Y-114984210D01*
X163185787Y-114984208D01*
X163065790Y-114864210D01*
X163038222Y-114845790D01*
X162778675Y-114672367D01*
X162722484Y-114661190D01*
X162565555Y-114629974D01*
X162538157Y-114492235D01*
X162397809Y-114282191D01*
X162187765Y-114141843D01*
X161940000Y-114092560D01*
X160640000Y-114092560D01*
X160392235Y-114141843D01*
X160182191Y-114282191D01*
X160041843Y-114492235D01*
X159992560Y-114740000D01*
X159992560Y-116240000D01*
X160041843Y-116487765D01*
X160182191Y-116697809D01*
X160392235Y-116838157D01*
X160401500Y-116840000D01*
X160392235Y-116841843D01*
X160182191Y-116982191D01*
X160041843Y-117192235D01*
X159992560Y-117440000D01*
X159992560Y-118940000D01*
X160041843Y-119187765D01*
X160149515Y-119348906D01*
X159575910Y-119922510D01*
X159350710Y-119922510D01*
X159102945Y-119971793D01*
X158892901Y-120112141D01*
X158752553Y-120322185D01*
X158703270Y-120569950D01*
X158703270Y-121202269D01*
X158609639Y-121062141D01*
X158399595Y-120921793D01*
X158151830Y-120872510D01*
X157351730Y-120872510D01*
X157103965Y-120921793D01*
X156934540Y-121035000D01*
X151496579Y-121035000D01*
X150745000Y-120283420D01*
X150745000Y-118469026D01*
X150792642Y-118469026D01*
X150795291Y-118484791D01*
X151049268Y-119012036D01*
X151485680Y-119401954D01*
X152038087Y-119595184D01*
X152273000Y-119450924D01*
X152273000Y-118237000D01*
X152527000Y-118237000D01*
X152527000Y-119450924D01*
X152761913Y-119595184D01*
X153314320Y-119401954D01*
X153403092Y-119322639D01*
X155999196Y-119322639D01*
X156160059Y-119711023D01*
X156535966Y-120125989D01*
X157042059Y-120365514D01*
X157264100Y-120244229D01*
X157264100Y-119100600D01*
X157518100Y-119100600D01*
X157518100Y-120244229D01*
X157740141Y-120365514D01*
X158246234Y-120125989D01*
X158622141Y-119711023D01*
X158783004Y-119322639D01*
X158661015Y-119100600D01*
X157518100Y-119100600D01*
X157264100Y-119100600D01*
X156121185Y-119100600D01*
X155999196Y-119322639D01*
X153403092Y-119322639D01*
X153750732Y-119012036D01*
X154004709Y-118484791D01*
X154007358Y-118469026D01*
X153886217Y-118237000D01*
X152527000Y-118237000D01*
X152273000Y-118237000D01*
X150913783Y-118237000D01*
X150792642Y-118469026D01*
X150745000Y-118469026D01*
X150745000Y-115712500D01*
X150830729Y-116143489D01*
X151155585Y-116629670D01*
X151465069Y-116836461D01*
X151049268Y-117207964D01*
X150795291Y-117735209D01*
X150792642Y-117750974D01*
X150913783Y-117983000D01*
X152273000Y-117983000D01*
X152273000Y-117963000D01*
X152527000Y-117963000D01*
X152527000Y-117983000D01*
X153886217Y-117983000D01*
X154007358Y-117750974D01*
X154004709Y-117735209D01*
X153750732Y-117207964D01*
X153334931Y-116836461D01*
X153644415Y-116629670D01*
X153775093Y-116434096D01*
X153952484Y-116398810D01*
X154008675Y-116387633D01*
X154295790Y-116195790D01*
X155645787Y-114845792D01*
X155645790Y-114845790D01*
X155837633Y-114558675D01*
X155905000Y-114220000D01*
X155905000Y-109220587D01*
X156017765Y-109198157D01*
X156070319Y-109163041D01*
X156273385Y-109298727D01*
X156521150Y-109348010D01*
X159520890Y-109348010D01*
X159768655Y-109298727D01*
X159978699Y-109158379D01*
X160018831Y-109098317D01*
X160159412Y-109238897D01*
X160392801Y-109335570D01*
X161733230Y-109335570D01*
X161891980Y-109176820D01*
X161891980Y-108077000D01*
X162145980Y-108077000D01*
X162145980Y-109176820D01*
X162304730Y-109335570D01*
X163645159Y-109335570D01*
X163878548Y-109238897D01*
X164057177Y-109060269D01*
X164153850Y-108826880D01*
X164153850Y-108235750D01*
X163995100Y-108077000D01*
X162145980Y-108077000D01*
X161891980Y-108077000D01*
X161871980Y-108077000D01*
X161871980Y-107823000D01*
X161891980Y-107823000D01*
X161891980Y-106723180D01*
X162145980Y-106723180D01*
X162145980Y-107823000D01*
X163995100Y-107823000D01*
X164153850Y-107664250D01*
X164153850Y-107073120D01*
X164057177Y-106839731D01*
X163878548Y-106661103D01*
X163645159Y-106564430D01*
X162304730Y-106564430D01*
X162145980Y-106723180D01*
X161891980Y-106723180D01*
X161733230Y-106564430D01*
X160658169Y-106564430D01*
X160927599Y-106295000D01*
X164379724Y-106295000D01*
X164456235Y-106371645D01*
X164456235Y-106371645D01*
G37*
X164456235Y-106371645D02*
X164873244Y-106544803D01*
X165222606Y-106545108D01*
X165253783Y-106985375D01*
X165364783Y-107253352D01*
X165579896Y-107290499D01*
X166190395Y-106680000D01*
X166176253Y-106665858D01*
X166355858Y-106486253D01*
X166370000Y-106500395D01*
X166384143Y-106486253D01*
X166563748Y-106665858D01*
X166549605Y-106680000D01*
X166563748Y-106694143D01*
X166384143Y-106873748D01*
X166370000Y-106859605D01*
X165759501Y-107470104D01*
X165796648Y-107685217D01*
X166224972Y-107828112D01*
X166675375Y-107796217D01*
X166755000Y-107763235D01*
X166755000Y-108358121D01*
X165168753Y-109944367D01*
X165039213Y-109918600D01*
X164982987Y-109918600D01*
X164433836Y-110027833D01*
X163968289Y-110338902D01*
X163881627Y-110468600D01*
X158520573Y-110468600D01*
X158433911Y-110338902D01*
X157968364Y-110027833D01*
X157419213Y-109918600D01*
X157362987Y-109918600D01*
X156813836Y-110027833D01*
X156348289Y-110338902D01*
X156037220Y-110804449D01*
X155927987Y-111353600D01*
X156037220Y-111902751D01*
X156348289Y-112368298D01*
X156730375Y-112623600D01*
X156348289Y-112878902D01*
X156037220Y-113344449D01*
X155927987Y-113893600D01*
X156037220Y-114442751D01*
X156348289Y-114908298D01*
X156730375Y-115163600D01*
X156348289Y-115418902D01*
X156037220Y-115884449D01*
X155927987Y-116433600D01*
X156037220Y-116982751D01*
X156348289Y-117448298D01*
X156752803Y-117718586D01*
X156535966Y-117821211D01*
X156160059Y-118236177D01*
X155999196Y-118624561D01*
X156121185Y-118846600D01*
X157264100Y-118846600D01*
X157264100Y-118826600D01*
X157518100Y-118826600D01*
X157518100Y-118846600D01*
X158661015Y-118846600D01*
X158783004Y-118624561D01*
X158622141Y-118236177D01*
X158246234Y-117821211D01*
X158029397Y-117718586D01*
X158433911Y-117448298D01*
X158744980Y-116982751D01*
X158854213Y-116433600D01*
X158744980Y-115884449D01*
X158433911Y-115418902D01*
X158051825Y-115163600D01*
X158433911Y-114908298D01*
X158744980Y-114442751D01*
X158854213Y-113893600D01*
X158744980Y-113344449D01*
X158433911Y-112878902D01*
X158051825Y-112623600D01*
X158433911Y-112368298D01*
X158520573Y-112238600D01*
X163881627Y-112238600D01*
X163968289Y-112368298D01*
X164350375Y-112623600D01*
X163968289Y-112878902D01*
X163657220Y-113344449D01*
X163547987Y-113893600D01*
X163657220Y-114442751D01*
X163968289Y-114908298D01*
X164350375Y-115163600D01*
X163968289Y-115418902D01*
X163657220Y-115884449D01*
X163576970Y-116287891D01*
X163445000Y-116155920D01*
X163445000Y-115610005D01*
X163445001Y-115610000D01*
X163377633Y-115271326D01*
X163377633Y-115271325D01*
X163185790Y-114984210D01*
X163185787Y-114984208D01*
X163065790Y-114864210D01*
X163038222Y-114845790D01*
X162778675Y-114672367D01*
X162722484Y-114661190D01*
X162565555Y-114629974D01*
X162538157Y-114492235D01*
X162397809Y-114282191D01*
X162187765Y-114141843D01*
X161940000Y-114092560D01*
X160640000Y-114092560D01*
X160392235Y-114141843D01*
X160182191Y-114282191D01*
X160041843Y-114492235D01*
X159992560Y-114740000D01*
X159992560Y-116240000D01*
X160041843Y-116487765D01*
X160182191Y-116697809D01*
X160392235Y-116838157D01*
X160401500Y-116840000D01*
X160392235Y-116841843D01*
X160182191Y-116982191D01*
X160041843Y-117192235D01*
X159992560Y-117440000D01*
X159992560Y-118940000D01*
X160041843Y-119187765D01*
X160149515Y-119348906D01*
X159575910Y-119922510D01*
X159350710Y-119922510D01*
X159102945Y-119971793D01*
X158892901Y-120112141D01*
X158752553Y-120322185D01*
X158703270Y-120569950D01*
X158703270Y-121202269D01*
X158609639Y-121062141D01*
X158399595Y-120921793D01*
X158151830Y-120872510D01*
X157351730Y-120872510D01*
X157103965Y-120921793D01*
X156934540Y-121035000D01*
X151496579Y-121035000D01*
X150745000Y-120283420D01*
X150745000Y-118469026D01*
X150792642Y-118469026D01*
X150795291Y-118484791D01*
X151049268Y-119012036D01*
X151485680Y-119401954D01*
X152038087Y-119595184D01*
X152273000Y-119450924D01*
X152273000Y-118237000D01*
X152527000Y-118237000D01*
X152527000Y-119450924D01*
X152761913Y-119595184D01*
X153314320Y-119401954D01*
X153403092Y-119322639D01*
X155999196Y-119322639D01*
X156160059Y-119711023D01*
X156535966Y-120125989D01*
X157042059Y-120365514D01*
X157264100Y-120244229D01*
X157264100Y-119100600D01*
X157518100Y-119100600D01*
X157518100Y-120244229D01*
X157740141Y-120365514D01*
X158246234Y-120125989D01*
X158622141Y-119711023D01*
X158783004Y-119322639D01*
X158661015Y-119100600D01*
X157518100Y-119100600D01*
X157264100Y-119100600D01*
X156121185Y-119100600D01*
X155999196Y-119322639D01*
X153403092Y-119322639D01*
X153750732Y-119012036D01*
X154004709Y-118484791D01*
X154007358Y-118469026D01*
X153886217Y-118237000D01*
X152527000Y-118237000D01*
X152273000Y-118237000D01*
X150913783Y-118237000D01*
X150792642Y-118469026D01*
X150745000Y-118469026D01*
X150745000Y-115712500D01*
X150830729Y-116143489D01*
X151155585Y-116629670D01*
X151465069Y-116836461D01*
X151049268Y-117207964D01*
X150795291Y-117735209D01*
X150792642Y-117750974D01*
X150913783Y-117983000D01*
X152273000Y-117983000D01*
X152273000Y-117963000D01*
X152527000Y-117963000D01*
X152527000Y-117983000D01*
X153886217Y-117983000D01*
X154007358Y-117750974D01*
X154004709Y-117735209D01*
X153750732Y-117207964D01*
X153334931Y-116836461D01*
X153644415Y-116629670D01*
X153775093Y-116434096D01*
X153952484Y-116398810D01*
X154008675Y-116387633D01*
X154295790Y-116195790D01*
X155645787Y-114845792D01*
X155645790Y-114845790D01*
X155837633Y-114558675D01*
X155905000Y-114220000D01*
X155905000Y-109220587D01*
X156017765Y-109198157D01*
X156070319Y-109163041D01*
X156273385Y-109298727D01*
X156521150Y-109348010D01*
X159520890Y-109348010D01*
X159768655Y-109298727D01*
X159978699Y-109158379D01*
X160018831Y-109098317D01*
X160159412Y-109238897D01*
X160392801Y-109335570D01*
X161733230Y-109335570D01*
X161891980Y-109176820D01*
X161891980Y-108077000D01*
X162145980Y-108077000D01*
X162145980Y-109176820D01*
X162304730Y-109335570D01*
X163645159Y-109335570D01*
X163878548Y-109238897D01*
X164057177Y-109060269D01*
X164153850Y-108826880D01*
X164153850Y-108235750D01*
X163995100Y-108077000D01*
X162145980Y-108077000D01*
X161891980Y-108077000D01*
X161871980Y-108077000D01*
X161871980Y-107823000D01*
X161891980Y-107823000D01*
X161891980Y-106723180D01*
X162145980Y-106723180D01*
X162145980Y-107823000D01*
X163995100Y-107823000D01*
X164153850Y-107664250D01*
X164153850Y-107073120D01*
X164057177Y-106839731D01*
X163878548Y-106661103D01*
X163645159Y-106564430D01*
X162304730Y-106564430D01*
X162145980Y-106723180D01*
X161891980Y-106723180D01*
X161733230Y-106564430D01*
X160658169Y-106564430D01*
X160927599Y-106295000D01*
X164379724Y-106295000D01*
X164456235Y-106371645D01*
M02*
